<?xml version="1.0" encoding="UTF-8" standalone="no"?>
<svg
   width="19"
   height="19"
   fill="none"
   version="1.1"
   id="svg1561"
   sodipodi:docname="button-up.svg"
   inkscape:version="1.1 (c4e8f9ed74, 2021-05-24)"
   xmlns:inkscape="http://www.inkscape.org/namespaces/inkscape"
   xmlns:sodipodi="http://sodipodi.sourceforge.net/DTD/sodipodi-0.dtd"
   xmlns="http://www.w3.org/2000/svg"
   xmlns:svg="http://www.w3.org/2000/svg">
  <defs
     id="defs1565" />
  <sodipodi:namedview
     id="namedview1563"
     pagecolor="#ffffff"
     bordercolor="#666666"
     borderopacity="1.0"
     inkscape:pageshadow="2"
     inkscape:pageopacity="0.0"
     inkscape:pagecheckerboard="0"
     showgrid="true"
     inkscape:zoom="22.627417"
     inkscape:cx="10.253048"
     inkscape:cy="8.1759221"
     inkscape:window-width="1600"
     inkscape:window-height="870"
     inkscape:window-x="1920"
     inkscape:window-y="30"
     inkscape:window-maximized="1"
     inkscape:current-layer="svg1561">
    <inkscape:grid
       type="xygrid"
       id="grid1624" />
  </sodipodi:namedview>
  <path
     fill="silver"
     style="fill:#a0a0a0;fill-opacity:1;stroke-width:1.23033"
     d="M 1,1 H 17 V 17 H 1 Z"
     id="path1555" />
  <path
     style="fill:#000000;fill-opacity:1;stroke:none;stroke-width:1px;stroke-linecap:butt;stroke-linejoin:miter;stroke-opacity:1"
     d="M 12,13 V 11 H 11 V 9 H 10 V 7 H 9 V 5 H 8 V 7 H 7 V 9 H 6 v 2 H 5 v 2 z"
     id="path1557" />
  <path
     style="fill:#4f4f4f;fill-opacity:1;stroke:none;stroke-width:1.48698px;stroke-linecap:butt;stroke-linejoin:miter;stroke-opacity:1"
     d="m 12,11 v -1 h -1 v 1 z M 11,9 V 8 H 10 V 9 Z M 10,7 V 6 H 9 V 7 Z M 9,5 V 4 H 8 V 5 Z M 8,7 V 6 H 7 V 7 Z M 7,9 V 8 H 6 V 9 Z M 6,11 V 10 H 5 v 1 z M 5,13 V 12 H 4 v 1 z m 8,0 v -1 h -1 v 1 z"
     id="path1559" />
  <path
     id="rect1680"
     style="fill:#4c4c4c;stroke-width:1.00157"
     d="m 17,0 h 1 V 4 H 17 Z M 0,17 h 4 v 1 H 0 Z M 18,4 H 17 V 17 H 4 v 1 h 14 z" />
  <path
     id="rect1682"
     style="fill:#000000;stroke-width:1.00157"
     d="m 0,18 h 3 v 1 H 0 Z M 18,0 h 1 v 3 h -1 z m 1,19 H 3.0000001 V 18 H 18 V 3 h 1 z" />
  <path
     id="rect3026"
     style="fill:#ffffff;stroke-width:1.00157"
     d="M 0,0 H 1 V 18 H 0 Z M 0,0 H 18 V 1 H 0 Z" />
</svg>
