<svg xmlns="http://www.w3.org/2000/svg" width="16" height="16" fill="none"><path fill-rule="evenodd" clip-rule="evenodd" d="M15 0H0v15h1V1h14z" fill="#DFDFDF" style="fill:#fff;fill-opacity:1"/><path fill-rule="evenodd" clip-rule="evenodd" d="M16 16H0v-1h15V0h1z" fill="#000"/><path fill-rule="evenodd" clip-rule="evenodd" d="M15 1h-1v13H1v1h14z" fill="gray" style="fill:#4c4c4c;fill-opacity:1"/><path fill="silver" style="fill:#a0a0a0;fill-opacity:1;stroke-width:.999641" d="M1 1h13v13H1z"/><path style="fill:#000;fill-opacity:1;stroke:none;stroke-width:1px;stroke-linecap:butt;stroke-linejoin:miter;stroke-opacity:1" d="M3 11h2v-1h2V9h2V8h2V7H9V6H7V5H5V4H3z"/><path style="fill:#4f4f4f;fill-opacity:1;stroke:none;stroke-width:1.48698px;stroke-linecap:butt;stroke-linejoin:miter;stroke-opacity:1" d="M5 11h1v-1H5zM7 10h1V9H7zM9 9h1V8H9zM11 8h1V7h-1zM9 7h1V6H9zM7 6h1V5H7zM5 5h1V4H5zM3 4h1V3H3zM3 12h1v-1H3z"/></svg>