<svg xmlns="http://www.w3.org/2000/svg" width="16" height="16" fill="none"><path fill-rule="evenodd" clip-rule="evenodd" d="M15 0H0v15h1V1h14z" fill="#DFDFDF" style="fill:#fff;fill-opacity:1"/><path fill-rule="evenodd" clip-rule="evenodd" d="M16 16H0v-1h15V0h1z" fill="#000"/><path fill-rule="evenodd" clip-rule="evenodd" d="M15 1h-1v13H1v1h14z" fill="gray" style="fill:#4c4c4c;fill-opacity:1"/><path fill="silver" style="fill:#a0a0a0;fill-opacity:1;stroke-width:.999641" d="M1 1h13v13H1z"/><path style="fill:#000;fill-opacity:1;stroke:none;stroke-width:1px;stroke-linecap:butt;stroke-linejoin:miter;stroke-opacity:1" d="M12 4h-2v1H8v1H6v1H4v1h2v1h2v1h2v1h2z"/><path style="fill:#4f4f4f;fill-opacity:1;stroke:none;stroke-width:1.48698px;stroke-linecap:butt;stroke-linejoin:miter;stroke-opacity:1" d="M10 4H9v1h1zM8 5H7v1h1zM6 6H5v1h1zM4 7H3v1h1zM6 8H5v1h1zM8 9H7v1h1zM10 10H9v1h1zM12 11h-1v1h1zM12 3h-1v1h1z"/></svg>