<?xml version="1.0" encoding="UTF-8" standalone="no"?>
<svg
   width="19"
   height="19"
   fill="none"
   version="1.1"
   id="svg3219"
   sodipodi:docname="button-down.svg"
   inkscape:version="1.1 (c4e8f9ed74, 2021-05-24)"
   xmlns:inkscape="http://www.inkscape.org/namespaces/inkscape"
   xmlns:sodipodi="http://sodipodi.sourceforge.net/DTD/sodipodi-0.dtd"
   xmlns="http://www.w3.org/2000/svg"
   xmlns:svg="http://www.w3.org/2000/svg">
  <defs
     id="defs3223" />
  <sodipodi:namedview
     id="namedview3221"
     pagecolor="#ffffff"
     bordercolor="#666666"
     borderopacity="1.0"
     inkscape:pageshadow="2"
     inkscape:pageopacity="0.0"
     inkscape:pagecheckerboard="0"
     showgrid="true"
     inkscape:zoom="19.125"
     inkscape:cx="9.7254902"
     inkscape:cy="10.300654"
     inkscape:window-width="1600"
     inkscape:window-height="870"
     inkscape:window-x="1920"
     inkscape:window-y="30"
     inkscape:window-maximized="1"
     inkscape:current-layer="svg3219">
    <inkscape:grid
       type="xygrid"
       id="grid3282" />
  </sodipodi:namedview>
  <path
     fill="silver"
     style="fill:#a0a0a0;fill-opacity:1;stroke-width:1.23033"
     d="M 1,1 H 17 V 17 H 1 Z"
     id="path3213" />
  <path
     style="fill:#000000;fill-opacity:1;stroke:none;stroke-width:1px;stroke-linecap:butt;stroke-linejoin:miter;stroke-opacity:1"
     d="m 5,4 v 2 h 1 v 2 h 1 v 2 h 1 v 2 h 1 v -2 h 1 V 8 h 1 V 6 h 1 V 4 Z"
     id="path3215" />
  <path
     style="fill:#4f4f4f;fill-opacity:1;stroke:none;stroke-width:1.48698px;stroke-linecap:butt;stroke-linejoin:miter;stroke-opacity:1"
     d="M 5,6 V 7 H 6 V 6 Z M 6,8 V 9 H 7 V 8 Z m 1,2 v 1 h 1 v -1 z m 1,2 v 1 h 1 v -1 z m 1,-2 v 1 h 1 v -1 z m 1,-2 v 1 h 1 V 8 Z m 1,-2 v 1 h 1 V 6 Z m 1,-2 v 1 h 1 V 4 Z M 4,4 V 5 H 5 V 4 Z"
     id="path3217" />
  <path
     id="rect3630"
     style="fill:#ffffff;stroke-width:1.00157"
     d="M 0,1 H 1 V 18 H 0 Z M 0,0 H 18 V 1 H 0 Z" />
  <path
     id="rect4013"
     style="fill:#4c4c4c;stroke-width:1.00157"
     d="m 1,17 h 16 v 1 H 1 Z M 17,1 h 1 v 17 h -1 z" />
  <rect
     style="fill:#000000;fill-opacity:1;stroke-width:1.00157"
     id="rect5731"
     width="1"
     height="19"
     x="18"
     y="0" />
  <rect
     style="fill:#000000;fill-opacity:1;stroke-width:1.00157"
     id="rect5843"
     width="18"
     height="1"
     x="0"
     y="18" />
</svg>
