<?xml version="1.0" encoding="UTF-8" standalone="no"?>
<svg
   width="21"
   height="2"
   fill="none"
   version="1.1"
   id="svg1133"
   sodipodi:docname="scrollbar-background.svg"
   inkscape:version="1.1 (c4e8f9ed74, 2021-05-24)"
   xmlns:inkscape="http://www.inkscape.org/namespaces/inkscape"
   xmlns:sodipodi="http://sodipodi.sourceforge.net/DTD/sodipodi-0.dtd"
   xmlns="http://www.w3.org/2000/svg"
   xmlns:svg="http://www.w3.org/2000/svg">
  <defs
     id="defs1137" />
  <sodipodi:namedview
     id="namedview1135"
     pagecolor="#ffffff"
     bordercolor="#666666"
     borderopacity="1.0"
     inkscape:pageshadow="2"
     inkscape:pageopacity="0.0"
     inkscape:pagecheckerboard="0"
     showgrid="false"
     inkscape:zoom="32"
     inkscape:cx="11.4375"
     inkscape:cy="-0.3125"
     inkscape:window-width="1600"
     inkscape:window-height="870"
     inkscape:window-x="1920"
     inkscape:window-y="30"
     inkscape:window-maximized="1"
     inkscape:current-layer="svg1133" />
  <path
     style="fill:#a0a0a0;fill-opacity:1;stroke-width:1.08978"
     d="M 0,0 H 21 V 2 H 0 Z"
     id="path1099" />
  <path
     fill-rule="evenodd"
     clip-rule="evenodd"
     d="M 2,0 H 1 V 1 H 2 V 2 H 3 V 1 H 2 Z"
     fill="#a0a0a0"
     id="path1101" />
  <path
     fill-rule="evenodd"
     clip-rule="evenodd"
     d="M 3,0 H 2 V 1 H 1 V 2 H 2 V 1 h 1 z"
     fill="#535353"
     id="path1103" />
  <path
     fill-rule="evenodd"
     clip-rule="evenodd"
     d="M 4,0 H 3 V 1 H 4 V 2 H 5 V 1 H 4 Z"
     fill="#a0a0a0"
     id="path1105" />
  <path
     fill-rule="evenodd"
     clip-rule="evenodd"
     d="M 5,0 H 4 V 1 H 3 V 2 H 4 V 1 h 1 z"
     fill="#535353"
     id="path1107" />
  <path
     fill-rule="evenodd"
     clip-rule="evenodd"
     d="M 6,0 H 5 V 1 H 6 V 2 H 7 V 1 H 6 Z"
     fill="#a0a0a0"
     id="path1109" />
  <path
     fill-rule="evenodd"
     clip-rule="evenodd"
     d="M 7,0 H 6 V 1 H 5 V 2 H 6 V 1 h 1 z"
     fill="#535353"
     id="path1111" />
  <path
     fill-rule="evenodd"
     clip-rule="evenodd"
     d="M 8,0 H 7 V 1 H 8 V 2 H 9 V 1 H 8 Z"
     fill="#a0a0a0"
     id="path1113" />
  <path
     fill-rule="evenodd"
     clip-rule="evenodd"
     d="M 9,0 H 8 V 1 H 7 V 2 H 8 V 1 h 1 z"
     fill="#535353"
     id="path1115" />
  <path
     fill-rule="evenodd"
     clip-rule="evenodd"
     d="M 10,0 H 9 v 1 h 1 v 1 h 1 V 1 h -1 z"
     fill="#a0a0a0"
     id="path1117" />
  <path
     fill-rule="evenodd"
     clip-rule="evenodd"
     d="M 11,0 H 10 V 1 H 9 v 1 h 1 V 1 h 1 z"
     fill="#535353"
     id="path1119" />
  <path
     fill-rule="evenodd"
     clip-rule="evenodd"
     d="m 12,0 h -1 v 1 h 1 v 1 h 1 V 1 h -1 z"
     fill="#a0a0a0"
     id="path1121" />
  <path
     fill-rule="evenodd"
     clip-rule="evenodd"
     d="m 13,0 h -1 v 1 h -1 v 1 h 1 V 1 h 1 z"
     fill="#535353"
     id="path1123" />
  <path
     fill-rule="evenodd"
     clip-rule="evenodd"
     d="m 14,0 h -1 v 1 h 1 v 1 h 1 V 1 h -1 z"
     fill="#a0a0a0"
     id="path1125" />
  <path
     fill-rule="evenodd"
     clip-rule="evenodd"
     d="m 15,0 h -1 v 1 h -1 v 1 h 1 V 1 h 1 z"
     fill="#535353"
     id="path1127" />
  <path
     fill-rule="evenodd"
     clip-rule="evenodd"
     d="m 16,0 h -1 v 1 h 1 v 1 h 1 V 1 h -1 z"
     fill="#a0a0a0"
     id="path1129" />
  <path
     fill-rule="evenodd"
     clip-rule="evenodd"
     d="m 17,0 h -1 v 1 h -1 v 1 h 1 V 1 h 1 z"
     fill="#535353"
     id="path1131" />
  <path
     fill-rule="evenodd"
     clip-rule="evenodd"
     d="m 19,0 h -1 v 1 h -1 v 1 h 1 V 1 h 1 z"
     fill="#535353"
     id="path1131-3" />
  <rect
     style="fill:#535353;stroke-width:1.00157;fill-opacity:1"
     id="rect1276"
     width="1"
     height="1"
     x="19"
     y="1" />
</svg>
